<svg xmlns="http://www.w3.org/2000/svg" width="2192" height="2176" viewBox="0 0 2192 2176" version="1.1"><path d="M 358.500 10.656 C 272.015 17.748, 192.361 54.503, 131.432 115.432 C 96.298 150.565, 69.061 192.066, 50.660 238.500 C 39.446 266.799, 32.518 294.420, 27.835 329.500 C 25.849 344.376, 25.849 1820.624, 27.835 1835.500 C 35.918 1896.050, 54.092 1945.902, 85.227 1992.931 C 126.606 2055.436, 184.907 2102.762, 254.500 2130.340 C 282.799 2141.554, 310.420 2148.482, 345.500 2153.165 C 360.376 2155.151, 1837.624 2155.151, 1852.500 2153.165 C 1913.050 2145.082, 1962.902 2126.908, 2009.931 2095.773 C 2072.436 2054.394, 2119.762 1996.093, 2147.340 1926.500 C 2158.554 1898.201, 2165.482 1870.580, 2170.165 1835.500 C 2172.151 1820.624, 2172.151 344.376, 2170.165 329.500 C 2162.082 268.950, 2143.908 219.098, 2112.773 172.069 C 2071.394 109.564, 2013.093 62.238, 1943.500 34.660 C 1917.107 24.202, 1895.116 18.426, 1860 12.732 L 1846.500 10.543 1104.500 10.435 C 696.400 10.376, 360.700 10.476, 358.500 10.656 M 365 19.653 C 363.075 19.841, 356.325 20.482, 350 21.079 C 276.413 28.020, 203.386 61.150, 147.715 112.851 C 85.940 170.220, 47.969 244.909, 37.315 330.006 C 35.577 343.889, 35.500 375.620, 35.500 1082.500 C 35.500 1789.380, 35.577 1821.111, 37.315 1834.994 C 47.969 1920.091, 85.940 1994.780, 147.715 2052.149 C 202.478 2103.006, 269.982 2134.167, 346.006 2143.685 C 359.889 2145.423, 391.637 2145.500, 1099 2145.500 C 1806.363 2145.500, 1838.111 2145.423, 1851.994 2143.685 C 1928.018 2134.167, 1995.522 2103.006, 2050.285 2052.149 C 2112.034 1994.804, 2150.036 1920.056, 2160.685 1834.994 C 2162.423 1821.111, 2162.500 1789.380, 2162.500 1082.500 C 2162.500 375.620, 2162.423 343.889, 2160.685 330.006 C 2150.036 244.944, 2112.034 170.196, 2050.285 112.851 C 1995.853 62.301, 1930.303 31.878, 1853 21.287 C 1841.300 19.684, 1793.370 19.566, 1104.500 19.443 C 699.700 19.371, 366.925 19.466, 365 19.653 M 1625.951 216.792 C 1622.740 219.358, 1617.972 229.070, 1614.719 239.668 L 1612.212 247.837 1619.356 249.546 C 1650.655 257.033, 1674.033 269.804, 1681.297 283.381 L 1683.500 287.500 1683.767 397.750 L 1684.034 508 1635.767 507.998 C 1609.220 507.996, 1581.650 507.554, 1574.500 507.015 C 1498.820 501.310, 1500.447 501.303, 1495.355 507.355 C 1492.826 510.360, 1492.759 510.772, 1493.379 519.483 C 1494.004 528.270, 1496.966 542.866, 1500.790 556 L 1502.682 562.500 1593.341 562.755 L 1684 563.011 1684 682.926 L 1684 802.841 1690.750 803.670 C 1706.645 805.624, 1728.038 804.061, 1735.115 800.430 C 1740.710 797.559, 1742.159 789.765, 1746.926 736.901 C 1750.912 692.686, 1751.123 677.424, 1750.806 456.316 L 1750.500 243.131 1747.564 240.066 C 1741.280 233.508, 1703.906 222.204, 1673 217.514 C 1667.225 216.638, 1654.850 215.658, 1645.500 215.337 C 1629.421 214.785, 1628.362 214.864, 1625.951 216.792 M 456.231 260.160 C 448.214 272.493, 446.425 279.053, 449.469 284.941 C 453.126 292.012, 475.227 309.023, 494.178 319.353 L 502.625 323.957 514.062 321.074 C 529.423 317.203, 546.343 315.133, 569.096 314.341 L 588 313.684 588 384.842 L 588 456 567.250 455.986 C 527.981 455.960, 491.401 453.287, 471.821 449.014 C 466.746 447.906, 462.495 447, 462.374 447 C 462.253 447, 460.039 450.180, 457.455 454.068 C 451.701 462.723, 448.686 470.292, 449.505 474.022 C 451.265 482.038, 471.599 498.056, 499.463 513.375 L 511.175 519.814 518.338 516.845 C 527.534 513.033, 542.481 509.403, 554.799 507.990 C 565.609 506.749, 949.149 507.233, 956.688 508.496 L 960.875 509.198 963.383 500.849 C 966.784 489.523, 968.850 478.875, 969.587 468.862 C 970.351 458.476, 969.318 455.460, 964.256 453.302 C 960.873 451.860, 957.574 451.823, 931 452.927 C 914.775 453.602, 895.425 454.545, 888 455.024 C 880.575 455.502, 870.112 455.918, 864.750 455.947 L 855 456 855 385 L 855 314 877.263 314 C 895.674 314, 955.562 315.624, 962.416 316.309 C 963.937 316.461, 964.716 315.264, 966.195 310.500 C 969.729 299.120, 972.105 286.469, 972.683 275.959 C 973.248 265.699, 973.195 265.339, 970.708 262.459 L 968.153 259.500 945.326 259.697 C 932.772 259.806, 915.975 260.441, 908 261.109 C 888.263 262.764, 564.872 263.590, 530 262.075 C 504.278 260.958, 484.781 259.050, 472.706 256.467 C 468.742 255.620, 464.342 254.678, 462.926 254.373 C 460.646 253.883, 459.882 254.544, 456.231 260.160 M 652.460 315.250 C 652.197 315.938, 652.099 347.775, 652.241 386 L 652.500 455.500 721.250 455.757 L 790 456.014 790 385.007 L 790 314 721.469 314 C 667.565 314, 652.835 314.267, 652.460 315.250 M 1190.005 321.875 C 1185.926 328.741, 1182 339.170, 1182 343.139 C 1182 347.033, 1185.029 350.765, 1194.856 358.979 C 1206.941 369.081, 1219.015 377.256, 1230.963 383.427 L 1239.864 388.024 1247.349 385.581 C 1258.929 381.801, 1276.386 378.176, 1288.500 377.036 C 1299.678 375.985, 1457 375.515, 1457 376.533 C 1457 377.621, 1451.661 387.547, 1445.261 398.359 C 1420.335 440.466, 1388.846 479.394, 1342.011 526 C 1277.528 590.168, 1209.017 643.100, 1148.500 675.509 C 1143.550 678.160, 1139.307 680.485, 1139.072 680.676 C 1138.242 681.348, 1147.078 697.573, 1151.435 703.379 C 1161.499 716.787, 1167.668 721.037, 1174.713 719.415 C 1179.080 718.410, 1204.215 705.060, 1223.672 693.411 C 1289.063 654.261, 1348.521 606.828, 1408.013 546.352 C 1431.203 522.779, 1440.959 512.146, 1456.454 493.552 C 1494.544 447.848, 1525.071 398.808, 1543.088 354.379 C 1546.863 345.071, 1547.500 342.478, 1547.500 336.427 C 1547.500 330.384, 1547.099 328.748, 1544.749 325.197 C 1543.236 322.910, 1540.216 320.131, 1538.039 319.020 C 1533.098 316.499, 1522.896 316.393, 1488.500 318.505 C 1470.161 319.631, 1441.150 319.980, 1365.500 319.984 C 1255.961 319.989, 1216.773 318.917, 1197.350 315.387 C 1194.328 314.838, 1194.028 315.103, 1190.005 321.875 M 344.061 568.657 C 338.069 576.751, 334 584.472, 334 587.746 C 334 589.040, 334.660 591.376, 335.467 592.935 C 337.737 597.326, 351.435 609.412, 362.500 616.787 C 379.955 628.422, 410.561 642.686, 415.963 641.703 C 417.358 641.449, 427.316 638.971, 438.090 636.196 C 448.865 633.422, 464.615 629.882, 473.090 628.331 L 488.500 625.510 720 625.188 C 945.770 624.874, 975.371 625.141, 1045.799 628.122 C 1060.263 628.735, 1072.355 628.978, 1072.671 628.663 C 1074.777 626.557, 1080.685 599.732, 1082.082 585.929 C 1083.487 572.057, 1082.362 567.885, 1076.568 565.464 C 1071.675 563.419, 1065.290 563.606, 1017 567.207 L 974.500 570.376 719 570.754 C 468.714 571.124, 438.873 570.862, 400 567.952 C 386.664 566.953, 355.553 563.370, 351.313 562.344 C 349.518 561.910, 348.218 563.041, 344.061 568.657 M 480.795 692.178 C 470.345 707.861, 470.342 708.221, 480.568 717.934 C 490.279 727.159, 506.021 737.529, 522.631 745.644 L 535.763 752.059 543.131 750.088 C 553.046 747.436, 565.339 745.295, 577.856 744.039 C 584.503 743.372, 640.817 743, 735.106 743 L 882 743 882 779.500 L 882 816 720.250 815.973 C 599.166 815.953, 549.960 815.595, 524.532 814.550 C 488.373 813.065, 486.758 813.185, 482.788 817.649 C 479.856 820.945, 476.852 828.922, 475.391 837.289 C 474.620 841.707, 474.104 845.419, 474.244 845.538 C 474.385 845.658, 477.200 846.517, 480.500 847.448 C 495.300 851.625, 507.468 860.227, 512.219 869.871 C 514.469 874.437, 514.508 875.145, 515.054 921.500 C 515.575 965.640, 515.734 968.850, 517.669 974.246 C 520.428 981.942, 524.168 987.385, 529.205 991.034 C 538.017 997.417, 522.592 997.029, 756.877 996.752 L 970.225 996.500 972.093 990.500 C 977.164 974.211, 980.315 950.327, 978.128 944.750 C 977.535 943.238, 975.576 941.102, 973.775 940.004 C 969.410 937.343, 964.520 937.415, 926.500 940.704 L 895.500 943.386 738.750 943.734 L 582 944.082 582 905.541 L 582 867 761.453 867 C 898.454 867, 941.526 866.717, 943.528 865.805 C 949.161 863.239, 949 865.713, 949 781.916 C 949 724.360, 948.692 703.704, 947.788 700.688 C 946.202 695.394, 941.075 690.373, 935.757 688.907 C 932.430 687.989, 921.675 688.110, 886.500 689.461 C 847.527 690.958, 820.605 691.133, 685.500 690.768 C 572.944 690.464, 526.437 690.010, 518.500 689.139 C 507.699 687.953, 492.521 685.580, 488.420 684.436 C 486.685 683.952, 485.421 685.235, 480.795 692.178 M 1299.500 730.716 C 1294.188 732.001, 1291.063 738.179, 1288.987 751.500 C 1288.387 755.350, 1287.702 759.451, 1287.463 760.613 C 1287.069 762.539, 1287.596 762.785, 1293.381 763.378 C 1307.683 764.843, 1327.048 771.923, 1334.902 778.559 C 1336.773 780.140, 1339.248 783.474, 1340.402 785.967 C 1342.461 790.415, 1342.510 791.959, 1343.023 868.500 C 1343.533 944.651, 1343.595 946.648, 1345.667 952.748 C 1349.538 964.146, 1355.556 971.687, 1364.384 976.200 C 1375.284 981.774, 1361.651 981.417, 1576.201 981.745 L 1773.901 982.048 1775.904 975.274 C 1782.291 953.675, 1784.990 928.287, 1781.439 923.217 C 1779.117 919.901, 1774.691 918, 1769.300 918.002 C 1763.496 918.004, 1731.356 921.133, 1706 924.164 C 1687.899 926.328, 1684.507 926.383, 1548.750 926.733 L 1410 927.091 1409.996 839.796 C 1409.993 754.902, 1409.939 752.412, 1408.035 749.290 C 1402.503 740.217, 1373.570 733.562, 1328.500 730.996 C 1310.694 729.982, 1302.846 729.906, 1299.500 730.716 M 283.628 1412.750 C 281.671 1418.815, 280.290 1427.209, 279.444 1438.183 C 278.806 1446.459, 278.887 1446.978, 281.179 1449.270 C 283.438 1451.529, 284.511 1451.715, 299.041 1452.361 C 324.698 1453.503, 331.468 1455.495, 335.248 1463.020 C 336.897 1466.301, 336.997 1478.911, 336.998 1683.685 C 336.999 1806.775, 336.618 1901.873, 336.118 1903.185 C 334.590 1907.193, 330.002 1910.860, 324.658 1912.345 C 315.806 1914.804, 313.008 1915.131, 294.160 1915.912 C 280.113 1916.494, 275.618 1917.001, 274.952 1918.077 C 273.485 1920.452, 272.708 1929.862, 273.275 1938.387 C 273.839 1946.861, 275.378 1951.592, 279.694 1958.113 L 282.266 1962 368.158 1962 L 454.050 1962 455.086 1959.273 C 458.092 1951.367, 461.036 1927.262, 459.663 1921.793 C 458.760 1918.196, 455.281 1917.101, 442.741 1916.463 C 426.184 1915.620, 419.067 1914.288, 415.144 1911.296 C 408.689 1906.374, 409 1911.846, 409 1803.032 L 409 1704 554.500 1704 L 700 1704 699.956 1800.250 C 699.910 1902.148, 699.956 1901.074, 695.345 1906.173 C 690.605 1911.415, 679.323 1914.748, 662.502 1915.877 C 656.147 1916.303, 650.500 1917.100, 649.953 1917.647 C 649.406 1918.194, 648.443 1922.496, 647.813 1927.207 C 646.370 1937.991, 647.685 1946.887, 652.028 1955.709 L 655.131 1962.011 741.815 1961.756 L 828.500 1961.500 830.288 1954.500 C 832.524 1945.748, 834.577 1926.411, 833.658 1922.763 C 832.477 1918.077, 829.781 1917.228, 812.500 1916.096 C 789.310 1914.576, 778.077 1911.089, 773.343 1903.941 L 770.986 1900.381 771.243 1683.256 L 771.500 1466.131 774.434 1463.068 C 779.968 1457.292, 793.466 1453.787, 815.250 1452.471 C 821.712 1452.080, 827 1451.622, 827 1451.452 C 827 1451.283, 827.467 1447.788, 828.037 1443.686 C 829.406 1433.847, 827.944 1424.655, 823.514 1415.250 L 820.099 1408 734.120 1408 L 648.142 1408 646.639 1413.250 C 644.314 1421.368, 643.085 1429.674, 642.780 1439.336 C 642.519 1447.585, 642.657 1448.300, 644.861 1450.086 C 646.686 1451.566, 648.841 1452.005, 654.361 1452.023 C 668.653 1452.068, 686.005 1453.908, 690.310 1455.835 C 696.028 1458.393, 697.833 1460.729, 699.008 1467.088 C 699.643 1470.520, 699.917 1504.824, 699.756 1560.506 L 699.500 1648.500 554.235 1648.753 L 408.970 1649.007 409.235 1555.584 L 409.500 1462.161 412 1459.451 C 416.491 1454.585, 419.993 1453.812, 442.984 1452.617 L 464.468 1451.500 465.176 1447.500 C 467.336 1435.307, 465.235 1422.196, 459.574 1412.536 L 456.916 1408 371.038 1408 L 285.161 1408 283.628 1412.750 M 891.572 1408.884 C 889.925 1411.548, 886.891 1427.907, 886.345 1437.066 C 885.484 1451.512, 885.394 1451.443, 906.186 1452.368 C 931.215 1453.481, 937.958 1455.349, 941.701 1462.206 C 943.404 1465.324, 943.531 1473.871, 944.076 1622.500 C 944.581 1760.073, 944.854 1780.985, 946.287 1791.500 C 954.405 1851.098, 972.640 1891.356, 1005.998 1923.320 C 1035.881 1951.955, 1074.979 1968.847, 1126 1975.163 C 1139.861 1976.880, 1184.294 1976.898, 1198 1975.194 C 1256.411 1967.929, 1300.141 1945.384, 1331.326 1906.457 C 1354.230 1877.868, 1367.640 1844.834, 1375.152 1798.500 L 1377.421 1784.500 1377.961 1626.500 C 1378.492 1470.760, 1378.529 1468.453, 1380.500 1465.190 C 1384.685 1458.264, 1399.359 1453.833, 1422.683 1452.452 C 1431.713 1451.918, 1433.996 1451.473, 1434.538 1450.145 C 1435.877 1446.864, 1436.237 1431.333, 1435.097 1426.018 C 1434.461 1423.052, 1432.541 1417.782, 1430.830 1414.307 L 1427.720 1407.988 1346.154 1408.244 L 1264.589 1408.500 1262.840 1415.309 C 1260.691 1423.672, 1259 1435.477, 1259 1442.118 C 1259 1446.065, 1259.507 1447.597, 1261.455 1449.545 C 1263.608 1451.699, 1264.804 1452.002, 1271.205 1452.016 C 1275.217 1452.025, 1283.833 1452.473, 1290.350 1453.013 C 1304.964 1454.224, 1309.841 1456.112, 1312.572 1461.615 C 1314.443 1465.386, 1314.509 1469.545, 1314.800 1603 C 1315.115 1747.377, 1314.590 1773.805, 1310.968 1795.969 C 1300.852 1857.875, 1272.664 1895.232, 1223.856 1911.419 C 1196.360 1920.538, 1156.863 1922.340, 1124.905 1915.933 C 1065.325 1903.989, 1030.052 1864.047, 1019.034 1796.050 C 1015.276 1772.855, 1014.885 1753.494, 1015.199 1606 C 1015.540 1445.519, 1014.722 1459.780, 1023.820 1455.756 C 1027.740 1454.021, 1031.933 1453.518, 1049.717 1452.647 C 1066.169 1451.842, 1071.056 1451.297, 1071.469 1450.221 C 1071.762 1449.458, 1072.282 1445.158, 1072.626 1440.667 C 1073.368 1430.963, 1071.607 1422.794, 1066.846 1413.863 L 1063.721 1408 977.920 1408 C 929.284 1408, 891.881 1408.383, 891.572 1408.884 M 1507.673 1413.750 C 1503.933 1427.267, 1502.737 1445.891, 1505.378 1449.502 C 1506.578 1451.143, 1508.809 1451.494, 1522.628 1452.217 C 1545.809 1453.429, 1550.961 1454.419, 1555.841 1458.596 C 1559.074 1461.363, 1560.080 1463.072, 1560.949 1467.271 C 1561.709 1470.949, 1561.952 1536.127, 1561.765 1687 C 1561.513 1891.321, 1561.415 1901.656, 1559.701 1904.794 C 1555.705 1912.113, 1545.850 1914.796, 1518.705 1915.955 C 1508.368 1916.396, 1499.704 1916.963, 1499.451 1917.215 C 1499.199 1917.468, 1498.494 1920.335, 1497.885 1923.587 C 1495.669 1935.414, 1498.283 1949.918, 1504.195 1958.601 L 1506.500 1961.986 1621 1961.983 C 1687.653 1961.981, 1741.559 1961.559, 1750 1960.972 C 1817.897 1956.252, 1865.842 1939.848, 1896.463 1910.863 C 1916.485 1891.910, 1928.367 1869.785, 1934.238 1840.524 C 1937.235 1825.583, 1937.442 1790.885, 1934.626 1775.500 C 1932.592 1764.384, 1927.190 1747.281, 1923.271 1739.548 C 1912.025 1717.354, 1891.647 1698.093, 1867.742 1687.059 C 1857.682 1682.416, 1840.279 1676.727, 1829.500 1674.557 C 1825.100 1673.672, 1820.846 1672.713, 1820.047 1672.427 C 1819.247 1672.141, 1823.814 1670.157, 1830.196 1668.018 C 1849.861 1661.429, 1861.607 1654.538, 1873.572 1642.572 C 1889.734 1626.411, 1899.330 1605.849, 1903.561 1578.311 C 1906.045 1562.147, 1905.877 1534.749, 1903.203 1519.998 C 1893.291 1465.302, 1856.326 1431.005, 1791.722 1416.562 C 1757.361 1408.881, 1738.941 1408.001, 1612.382 1408.001 L 1509.264 1408 1507.673 1413.750 M 1647 1461.130 C 1643.975 1461.623, 1640.375 1462.849, 1639 1463.853 C 1633.267 1468.042, 1633.523 1463.700, 1633.234 1561.821 L 1632.969 1652.143 1691.234 1651.698 C 1751.885 1651.235, 1753.035 1651.161, 1770.713 1646.576 C 1798.451 1639.382, 1818.541 1622.301, 1828.478 1597.463 C 1834.606 1582.146, 1837.452 1556.786, 1835.062 1538.804 C 1828.891 1492.379, 1796.402 1467.088, 1735.144 1461.025 C 1722.649 1459.788, 1654.736 1459.869, 1647 1461.130 M 1633.231 1801.682 C 1633.497 1899.271, 1633.526 1900.544, 1635.551 1904 C 1638.867 1909.658, 1641.891 1910.211, 1672.500 1910.749 C 1757.047 1912.236, 1806.998 1900.403, 1836.076 1872 C 1850.110 1858.291, 1856.977 1845.626, 1861.031 1825.975 C 1862.908 1816.876, 1863.125 1813.332, 1862.677 1799 C 1862.285 1786.453, 1861.642 1780.584, 1859.994 1774.500 C 1849.426 1735.487, 1820.249 1713.788, 1767 1705.343 C 1758.278 1703.960, 1746.038 1703.609, 1694.731 1703.271 L 1632.962 1702.864 1633.231 1801.682" stroke="none" fill="#fbfbfb" fill-rule="evenodd"/><path d="M 365 19.653 C 363.075 19.841, 356.325 20.482, 350 21.079 C 276.413 28.020, 203.386 61.150, 147.715 112.851 C 85.940 170.220, 47.969 244.909, 37.315 330.006 C 35.577 343.889, 35.500 375.620, 35.500 1082.500 C 35.500 1789.380, 35.577 1821.111, 37.315 1834.994 C 47.969 1920.091, 85.940 1994.780, 147.715 2052.149 C 202.478 2103.006, 269.982 2134.167, 346.006 2143.685 C 359.889 2145.423, 391.637 2145.500, 1099 2145.500 C 1806.363 2145.500, 1838.111 2145.423, 1851.994 2143.685 C 1928.018 2134.167, 1995.522 2103.006, 2050.285 2052.149 C 2112.034 1994.804, 2150.036 1920.056, 2160.685 1834.994 C 2162.423 1821.111, 2162.500 1789.380, 2162.500 1082.500 C 2162.500 375.620, 2162.423 343.889, 2160.685 330.006 C 2150.036 244.944, 2112.034 170.196, 2050.285 112.851 C 1995.853 62.301, 1930.303 31.878, 1853 21.287 C 1841.300 19.684, 1793.370 19.566, 1104.500 19.443 C 699.700 19.371, 366.925 19.466, 365 19.653 M 1625.951 216.792 C 1622.740 219.358, 1617.972 229.070, 1614.719 239.668 L 1612.212 247.837 1619.356 249.546 C 1650.655 257.033, 1674.033 269.804, 1681.297 283.381 L 1683.500 287.500 1683.767 397.750 L 1684.034 508 1635.767 507.998 C 1609.220 507.996, 1581.650 507.554, 1574.500 507.015 C 1498.820 501.310, 1500.447 501.303, 1495.355 507.355 C 1492.826 510.360, 1492.759 510.772, 1493.379 519.483 C 1494.004 528.270, 1496.966 542.866, 1500.790 556 L 1502.682 562.500 1593.341 562.755 L 1684 563.011 1684 682.926 L 1684 802.841 1690.750 803.670 C 1706.645 805.624, 1728.038 804.061, 1735.115 800.430 C 1740.710 797.559, 1742.159 789.765, 1746.926 736.901 C 1750.912 692.686, 1751.123 677.424, 1750.806 456.316 L 1750.500 243.131 1747.564 240.066 C 1741.280 233.508, 1703.906 222.204, 1673 217.514 C 1667.225 216.638, 1654.850 215.658, 1645.500 215.337 C 1629.421 214.785, 1628.362 214.864, 1625.951 216.792 M 456.231 260.160 C 448.214 272.493, 446.425 279.053, 449.469 284.941 C 453.126 292.012, 475.227 309.023, 494.178 319.353 L 502.625 323.957 514.062 321.074 C 529.423 317.203, 546.343 315.133, 569.096 314.341 L 588 313.684 588 384.842 L 588 456 567.250 455.986 C 527.981 455.960, 491.401 453.287, 471.821 449.014 C 466.746 447.906, 462.495 447, 462.374 447 C 462.253 447, 460.039 450.180, 457.455 454.068 C 451.701 462.723, 448.686 470.292, 449.505 474.022 C 451.265 482.038, 471.599 498.056, 499.463 513.375 L 511.175 519.814 518.338 516.845 C 527.534 513.033, 542.481 509.403, 554.799 507.990 C 565.609 506.749, 949.149 507.233, 956.688 508.496 L 960.875 509.198 963.383 500.849 C 966.784 489.523, 968.850 478.875, 969.587 468.862 C 970.351 458.476, 969.318 455.460, 964.256 453.302 C 960.873 451.860, 957.574 451.823, 931 452.927 C 914.775 453.602, 895.425 454.545, 888 455.024 C 880.575 455.502, 870.112 455.918, 864.750 455.947 L 855 456 855 385 L 855 314 877.263 314 C 895.674 314, 955.562 315.624, 962.416 316.309 C 963.937 316.461, 964.716 315.264, 966.195 310.500 C 969.729 299.120, 972.105 286.469, 972.683 275.959 C 973.248 265.699, 973.195 265.339, 970.708 262.459 L 968.153 259.500 945.326 259.697 C 932.772 259.806, 915.975 260.441, 908 261.109 C 888.263 262.764, 564.872 263.590, 530 262.075 C 504.278 260.958, 484.781 259.050, 472.706 256.467 C 468.742 255.620, 464.342 254.678, 462.926 254.373 C 460.646 253.883, 459.882 254.544, 456.231 260.160 M 652.460 315.250 C 652.197 315.938, 652.099 347.775, 652.241 386 L 652.500 455.500 721.250 455.757 L 790 456.014 790 385.007 L 790 314 721.469 314 C 667.565 314, 652.835 314.267, 652.460 315.250 M 1190.005 321.875 C 1185.926 328.741, 1182 339.170, 1182 343.139 C 1182 347.033, 1185.029 350.765, 1194.856 358.979 C 1206.941 369.081, 1219.015 377.256, 1230.963 383.427 L 1239.864 388.024 1247.349 385.581 C 1258.929 381.801, 1276.386 378.176, 1288.500 377.036 C 1299.678 375.985, 1457 375.515, 1457 376.533 C 1457 377.621, 1451.661 387.547, 1445.261 398.359 C 1420.335 440.466, 1388.846 479.394, 1342.011 526 C 1277.528 590.168, 1209.017 643.100, 1148.500 675.509 C 1143.550 678.160, 1139.307 680.485, 1139.072 680.676 C 1138.242 681.348, 1147.078 697.573, 1151.435 703.379 C 1161.499 716.787, 1167.668 721.037, 1174.713 719.415 C 1179.080 718.410, 1204.215 705.060, 1223.672 693.411 C 1289.063 654.261, 1348.521 606.828, 1408.013 546.352 C 1431.203 522.779, 1440.959 512.146, 1456.454 493.552 C 1494.544 447.848, 1525.071 398.808, 1543.088 354.379 C 1546.863 345.071, 1547.500 342.478, 1547.500 336.427 C 1547.500 330.384, 1547.099 328.748, 1544.749 325.197 C 1543.236 322.910, 1540.216 320.131, 1538.039 319.020 C 1533.098 316.499, 1522.896 316.393, 1488.500 318.505 C 1470.161 319.631, 1441.150 319.980, 1365.500 319.984 C 1255.961 319.989, 1216.773 318.917, 1197.350 315.387 C 1194.328 314.838, 1194.028 315.103, 1190.005 321.875 M 344.061 568.657 C 338.069 576.751, 334 584.472, 334 587.746 C 334 589.040, 334.660 591.376, 335.467 592.935 C 337.737 597.326, 351.435 609.412, 362.500 616.787 C 379.955 628.422, 410.561 642.686, 415.963 641.703 C 417.358 641.449, 427.316 638.971, 438.090 636.196 C 448.865 633.422, 464.615 629.882, 473.090 628.331 L 488.500 625.510 720 625.188 C 945.770 624.874, 975.371 625.141, 1045.799 628.122 C 1060.263 628.735, 1072.355 628.978, 1072.671 628.663 C 1074.777 626.557, 1080.685 599.732, 1082.082 585.929 C 1083.487 572.057, 1082.362 567.885, 1076.568 565.464 C 1071.675 563.419, 1065.290 563.606, 1017 567.207 L 974.500 570.376 719 570.754 C 468.714 571.124, 438.873 570.862, 400 567.952 C 386.664 566.953, 355.553 563.370, 351.313 562.344 C 349.518 561.910, 348.218 563.041, 344.061 568.657 M 480.795 692.178 C 470.345 707.861, 470.342 708.221, 480.568 717.934 C 490.279 727.159, 506.021 737.529, 522.631 745.644 L 535.763 752.059 543.131 750.088 C 553.046 747.436, 565.339 745.295, 577.856 744.039 C 584.503 743.372, 640.817 743, 735.106 743 L 882 743 882 779.500 L 882 816 720.250 815.973 C 599.166 815.953, 549.960 815.595, 524.532 814.550 C 488.373 813.065, 486.758 813.185, 482.788 817.649 C 479.856 820.945, 476.852 828.922, 475.391 837.289 C 474.620 841.707, 474.104 845.419, 474.244 845.538 C 474.385 845.658, 477.200 846.517, 480.500 847.448 C 495.300 851.625, 507.468 860.227, 512.219 869.871 C 514.469 874.437, 514.508 875.145, 515.054 921.500 C 515.575 965.640, 515.734 968.850, 517.669 974.246 C 520.428 981.942, 524.168 987.385, 529.205 991.034 C 538.017 997.417, 522.592 997.029, 756.877 996.752 L 970.225 996.500 972.093 990.500 C 977.164 974.211, 980.315 950.327, 978.128 944.750 C 977.535 943.238, 975.576 941.102, 973.775 940.004 C 969.410 937.343, 964.520 937.415, 926.500 940.704 L 895.500 943.386 738.750 943.734 L 582 944.082 582 905.541 L 582 867 761.453 867 C 898.454 867, 941.526 866.717, 943.528 865.805 C 949.161 863.239, 949 865.713, 949 781.916 C 949 724.360, 948.692 703.704, 947.788 700.688 C 946.202 695.394, 941.075 690.373, 935.757 688.907 C 932.430 687.989, 921.675 688.110, 886.500 689.461 C 847.527 690.958, 820.605 691.133, 685.500 690.768 C 572.944 690.464, 526.437 690.010, 518.500 689.139 C 507.699 687.953, 492.521 685.580, 488.420 684.436 C 486.685 683.952, 485.421 685.235, 480.795 692.178 M 1299.500 730.716 C 1294.188 732.001, 1291.063 738.179, 1288.987 751.500 C 1288.387 755.350, 1287.702 759.451, 1287.463 760.613 C 1287.069 762.539, 1287.596 762.785, 1293.381 763.378 C 1307.683 764.843, 1327.048 771.923, 1334.902 778.559 C 1336.773 780.140, 1339.248 783.474, 1340.402 785.967 C 1342.461 790.415, 1342.510 791.959, 1343.023 868.500 C 1343.533 944.651, 1343.595 946.648, 1345.667 952.748 C 1349.538 964.146, 1355.556 971.687, 1364.384 976.200 C 1375.284 981.774, 1361.651 981.417, 1576.201 981.745 L 1773.901 982.048 1775.904 975.274 C 1782.291 953.675, 1784.990 928.287, 1781.439 923.217 C 1779.117 919.901, 1774.691 918, 1769.300 918.002 C 1763.496 918.004, 1731.356 921.133, 1706 924.164 C 1687.899 926.328, 1684.507 926.383, 1548.750 926.733 L 1410 927.091 1409.996 839.796 C 1409.993 754.902, 1409.939 752.412, 1408.035 749.290 C 1402.503 740.217, 1373.570 733.562, 1328.500 730.996 C 1310.694 729.982, 1302.846 729.906, 1299.500 730.716 M 283.628 1412.750 C 281.671 1418.815, 280.290 1427.209, 279.444 1438.183 C 278.806 1446.459, 278.887 1446.978, 281.179 1449.270 C 283.438 1451.529, 284.511 1451.715, 299.041 1452.361 C 324.698 1453.503, 331.468 1455.495, 335.248 1463.020 C 336.897 1466.301, 336.997 1478.911, 336.998 1683.685 C 336.999 1806.775, 336.618 1901.873, 336.118 1903.185 C 334.590 1907.193, 330.002 1910.860, 324.658 1912.345 C 315.806 1914.804, 313.008 1915.131, 294.160 1915.912 C 280.113 1916.494, 275.618 1917.001, 274.952 1918.077 C 273.485 1920.452, 272.708 1929.862, 273.275 1938.387 C 273.839 1946.861, 275.378 1951.592, 279.694 1958.113 L 282.266 1962 368.158 1962 L 454.050 1962 455.086 1959.273 C 458.092 1951.367, 461.036 1927.262, 459.663 1921.793 C 458.760 1918.196, 455.281 1917.101, 442.741 1916.463 C 426.184 1915.620, 419.067 1914.288, 415.144 1911.296 C 408.689 1906.374, 409 1911.846, 409 1803.032 L 409 1704 554.500 1704 L 700 1704 699.956 1800.250 C 699.910 1902.148, 699.956 1901.074, 695.345 1906.173 C 690.605 1911.415, 679.323 1914.748, 662.502 1915.877 C 656.147 1916.303, 650.500 1917.100, 649.953 1917.647 C 649.406 1918.194, 648.443 1922.496, 647.813 1927.207 C 646.370 1937.991, 647.685 1946.887, 652.028 1955.709 L 655.131 1962.011 741.815 1961.756 L 828.500 1961.500 830.288 1954.500 C 832.524 1945.748, 834.577 1926.411, 833.658 1922.763 C 832.477 1918.077, 829.781 1917.228, 812.500 1916.096 C 789.310 1914.576, 778.077 1911.089, 773.343 1903.941 L 770.986 1900.381 771.243 1683.256 L 771.500 1466.131 774.434 1463.068 C 779.968 1457.292, 793.466 1453.787, 815.250 1452.471 C 821.712 1452.080, 827 1451.622, 827 1451.452 C 827 1451.283, 827.467 1447.788, 828.037 1443.686 C 829.406 1433.847, 827.944 1424.655, 823.514 1415.250 L 820.099 1408 734.120 1408 L 648.142 1408 646.639 1413.250 C 644.314 1421.368, 643.085 1429.674, 642.780 1439.336 C 642.519 1447.585, 642.657 1448.300, 644.861 1450.086 C 646.686 1451.566, 648.841 1452.005, 654.361 1452.023 C 668.653 1452.068, 686.005 1453.908, 690.310 1455.835 C 696.028 1458.393, 697.833 1460.729, 699.008 1467.088 C 699.643 1470.520, 699.917 1504.824, 699.756 1560.506 L 699.500 1648.500 554.235 1648.753 L 408.970 1649.007 409.235 1555.584 L 409.500 1462.161 412 1459.451 C 416.491 1454.585, 419.993 1453.812, 442.984 1452.617 L 464.468 1451.500 465.176 1447.500 C 467.336 1435.307, 465.235 1422.196, 459.574 1412.536 L 456.916 1408 371.038 1408 L 285.161 1408 283.628 1412.750 M 891.572 1408.884 C 889.925 1411.548, 886.891 1427.907, 886.345 1437.066 C 885.484 1451.512, 885.394 1451.443, 906.186 1452.368 C 931.215 1453.481, 937.958 1455.349, 941.701 1462.206 C 943.404 1465.324, 943.531 1473.871, 944.076 1622.500 C 944.581 1760.073, 944.854 1780.985, 946.287 1791.500 C 954.405 1851.098, 972.640 1891.356, 1005.998 1923.320 C 1035.881 1951.955, 1074.979 1968.847, 1126 1975.163 C 1139.861 1976.880, 1184.294 1976.898, 1198 1975.194 C 1256.411 1967.929, 1300.141 1945.384, 1331.326 1906.457 C 1354.230 1877.868, 1367.640 1844.834, 1375.152 1798.500 L 1377.421 1784.500 1377.961 1626.500 C 1378.492 1470.760, 1378.529 1468.453, 1380.500 1465.190 C 1384.685 1458.264, 1399.359 1453.833, 1422.683 1452.452 C 1431.713 1451.918, 1433.996 1451.473, 1434.538 1450.145 C 1435.877 1446.864, 1436.237 1431.333, 1435.097 1426.018 C 1434.461 1423.052, 1432.541 1417.782, 1430.830 1414.307 L 1427.720 1407.988 1346.154 1408.244 L 1264.589 1408.500 1262.840 1415.309 C 1260.691 1423.672, 1259 1435.477, 1259 1442.118 C 1259 1446.065, 1259.507 1447.597, 1261.455 1449.545 C 1263.608 1451.699, 1264.804 1452.002, 1271.205 1452.016 C 1275.217 1452.025, 1283.833 1452.473, 1290.350 1453.013 C 1304.964 1454.224, 1309.841 1456.112, 1312.572 1461.615 C 1314.443 1465.386, 1314.509 1469.545, 1314.800 1603 C 1315.115 1747.377, 1314.590 1773.805, 1310.968 1795.969 C 1300.852 1857.875, 1272.664 1895.232, 1223.856 1911.419 C 1196.360 1920.538, 1156.863 1922.340, 1124.905 1915.933 C 1065.325 1903.989, 1030.052 1864.047, 1019.034 1796.050 C 1015.276 1772.855, 1014.885 1753.494, 1015.199 1606 C 1015.540 1445.519, 1014.722 1459.780, 1023.820 1455.756 C 1027.740 1454.021, 1031.933 1453.518, 1049.717 1452.647 C 1066.169 1451.842, 1071.056 1451.297, 1071.469 1450.221 C 1071.762 1449.458, 1072.282 1445.158, 1072.626 1440.667 C 1073.368 1430.963, 1071.607 1422.794, 1066.846 1413.863 L 1063.721 1408 977.920 1408 C 929.284 1408, 891.881 1408.383, 891.572 1408.884 M 1507.673 1413.750 C 1503.933 1427.267, 1502.737 1445.891, 1505.378 1449.502 C 1506.578 1451.143, 1508.809 1451.494, 1522.628 1452.217 C 1545.809 1453.429, 1550.961 1454.419, 1555.841 1458.596 C 1559.074 1461.363, 1560.080 1463.072, 1560.949 1467.271 C 1561.709 1470.949, 1561.952 1536.127, 1561.765 1687 C 1561.513 1891.321, 1561.415 1901.656, 1559.701 1904.794 C 1555.705 1912.113, 1545.850 1914.796, 1518.705 1915.955 C 1508.368 1916.396, 1499.704 1916.963, 1499.451 1917.215 C 1499.199 1917.468, 1498.494 1920.335, 1497.885 1923.587 C 1495.669 1935.414, 1498.283 1949.918, 1504.195 1958.601 L 1506.500 1961.986 1621 1961.983 C 1687.653 1961.981, 1741.559 1961.559, 1750 1960.972 C 1817.897 1956.252, 1865.842 1939.848, 1896.463 1910.863 C 1916.485 1891.910, 1928.367 1869.785, 1934.238 1840.524 C 1937.235 1825.583, 1937.442 1790.885, 1934.626 1775.500 C 1932.592 1764.384, 1927.190 1747.281, 1923.271 1739.548 C 1912.025 1717.354, 1891.647 1698.093, 1867.742 1687.059 C 1857.682 1682.416, 1840.279 1676.727, 1829.500 1674.557 C 1825.100 1673.672, 1820.846 1672.713, 1820.047 1672.427 C 1819.247 1672.141, 1823.814 1670.157, 1830.196 1668.018 C 1849.861 1661.429, 1861.607 1654.538, 1873.572 1642.572 C 1889.734 1626.411, 1899.330 1605.849, 1903.561 1578.311 C 1906.045 1562.147, 1905.877 1534.749, 1903.203 1519.998 C 1893.291 1465.302, 1856.326 1431.005, 1791.722 1416.562 C 1757.361 1408.881, 1738.941 1408.001, 1612.382 1408.001 L 1509.264 1408 1507.673 1413.750 M 1647 1461.130 C 1643.975 1461.623, 1640.375 1462.849, 1639 1463.853 C 1633.267 1468.042, 1633.523 1463.700, 1633.234 1561.821 L 1632.969 1652.143 1691.234 1651.698 C 1751.885 1651.235, 1753.035 1651.161, 1770.713 1646.576 C 1798.451 1639.382, 1818.541 1622.301, 1828.478 1597.463 C 1834.606 1582.146, 1837.452 1556.786, 1835.062 1538.804 C 1828.891 1492.379, 1796.402 1467.088, 1735.144 1461.025 C 1722.649 1459.788, 1654.736 1459.869, 1647 1461.130 M 1633.231 1801.682 C 1633.497 1899.271, 1633.526 1900.544, 1635.551 1904 C 1638.867 1909.658, 1641.891 1910.211, 1672.500 1910.749 C 1757.047 1912.236, 1806.998 1900.403, 1836.076 1872 C 1850.110 1858.291, 1856.977 1845.626, 1861.031 1825.975 C 1862.908 1816.876, 1863.125 1813.332, 1862.677 1799 C 1862.285 1786.453, 1861.642 1780.584, 1859.994 1774.500 C 1849.426 1735.487, 1820.249 1713.788, 1767 1705.343 C 1758.278 1703.960, 1746.038 1703.609, 1694.731 1703.271 L 1632.962 1702.864 1633.231 1801.682" stroke="none" fill="#146484" fill-rule="evenodd"/></svg>